<?xml version="1.0" encoding="UTF-8"?>
<svg width="199px" height="283px" viewBox="0 0 199 283" version="1.1" xmlns="http://www.w3.org/2000/svg" xmlns:xlink="http://www.w3.org/1999/xlink">
    <!-- Generator: Sketch 51.3 (57544) - http://www.bohemiancoding.com/sketch -->
    <title>Group 27</title>
    <desc>Created with Sketch.</desc>
    <defs>
        <polygon id="path-1" points="0.33145649 0.0001 198.331 0.0001 198.331 216.5001 0.33145649 216.5001"></polygon>
        <polygon id="path-3" points="0.33145649 0.1428 198.331 0.1428 198.331 92.9998 0.33145649 92.9998"></polygon>
        <polygon id="path-5" points="0.331602443 0.985201289 198.331 0.985201289 198.331 94.4998 0.331602443 94.4998"></polygon>
        <polygon id="path-7" points="0 0.9092 197.999827 0.9092 197.999827 217.4092 0 217.4092"></polygon>
    </defs>
    <g id="Page-1" stroke="none" stroke-width="1" fill="none" fill-rule="evenodd">
        <g id="Group-27">
            <path d="M98.7816,102 C146.0296,102 184.3316,140.302 184.3316,187.55 C184.3316,234.798 146.0296,273.1 98.7816,273.1 C51.5336,273.1 13.2316,234.798 13.2316,187.55 C13.2316,140.302 51.5336,102 98.7816,102" id="Fill-1" fill="#CEE4EA"></path>
            <g id="Group-5" transform="translate(0.000000, 66.000000)">
                <mask id="mask-2" fill="white">
                    <use xlink:href="#path-1"></use>
                </mask>
                <g id="Clip-4"></g>
                <path d="M195.9213,194.5391 L126.3313,90.6381 L126.3313,0.0001 L72.3313,0.0001 L72.3313,90.6381 L2.7413,194.5391 C-3.5367,203.9141 3.1823,216.5001 14.4643,216.5001 L184.1983,216.5001 C195.4813,216.5001 202.1993,203.9141 195.9213,194.5391" id="Fill-3" fill="#FFFFFF" mask="url(#mask-2)"></path>
            </g>
            <g id="Group-8" transform="translate(0.000000, 190.000000)">
                <mask id="mask-4" fill="white">
                    <use xlink:href="#path-3"></use>
                </mask>
                <g id="Clip-7"></g>
                <path d="M46.2543,6.0718 C52.0493,10.1498 74.8263,11.4998 91.6643,11.4998 C113.4013,11.4998 104.3313,1.9998 148.1073,0.1428 L195.9213,71.0388 C202.1993,80.4138 195.4813,92.9998 184.1973,92.9998 L14.4643,92.9998 C3.1823,92.9998 -3.5367,80.4138 2.7413,71.0388 L46.2543,6.0718 Z" id="Fill-6" fill="#BDE4A7" mask="url(#mask-4)"></path>
            </g>
            <g id="Group-11" transform="translate(0.000000, 188.000000)">
                <mask id="mask-6" fill="white">
                    <use xlink:href="#path-5"></use>
                </mask>
                <g id="Clip-10"></g>
                <path d="M151.4086,7.5718 C145.6136,11.6498 133.8366,18.9998 116.9986,18.9998 C95.2616,18.9998 93.7956,-5.4992 49.5556,2.6428 L2.7416,72.5388 C-3.5364,81.9138 3.1816,94.4998 14.4646,94.4998 L184.1986,94.4998 C195.4806,94.4998 202.1996,81.9138 195.9216,72.5388 L151.4086,7.5718 Z" id="Fill-9" fill="#1C7293" mask="url(#mask-6)"></path>
            </g>
            <path d="M113.3314,120.5 C113.3314,126.299 108.6304,131 102.8314,131 C97.0324,131 92.3314,126.299 92.3314,120.5 C92.3314,114.701 97.0324,110 102.8314,110 C108.6304,110 113.3314,114.701 113.3314,120.5" id="Fill-12" fill="#BDE4A7"></path>
            <path d="M106.3314,160.5 C106.3314,166.299 101.6304,171 95.8314,171 C90.0324,171 85.3314,166.299 85.3314,160.5 C85.3314,154.701 90.0324,150 95.8314,150 C101.6304,150 106.3314,154.701 106.3314,160.5" id="Fill-14" fill="#9EB3C2"></path>
            <path d="M101.3314,24 C101.3314,31.732 95.0634,38 87.3314,38 C79.5994,38 73.3314,31.732 73.3314,24 C73.3314,16.268 79.5994,10 87.3314,10 C95.0634,10 101.3314,16.268 101.3314,24" id="Fill-16" fill="#BDE4A7"></path>
            <path d="M129.3314,9 C129.3314,13.971 125.3024,18 120.3314,18 C115.3604,18 111.3314,13.971 111.3314,9 C111.3314,4.029 115.3604,0 120.3314,0 C125.3024,0 129.3314,4.029 129.3314,9" id="Fill-18" fill="#9EB3C2"></path>
            <g id="Group-22" transform="translate(0.000000, 65.000000)">
                <mask id="mask-8" fill="white">
                    <use xlink:href="#path-7"></use>
                </mask>
                <g id="Clip-21"></g>
                <path d="M126.0004,0.9092 L72.0004,0.9092 L72.0004,91.5472 L2.4104,195.4482 C-3.8686,204.8232 2.8504,217.4092 14.1334,217.4092 L183.8664,217.4092 C195.1494,217.4092 201.8684,204.8232 195.5894,195.4482 L126.0004,91.5472 L126.0004,0.9092 Z M118.0004,8.9092 L118.0004,91.5472 L118.0004,93.9782 L119.3534,95.9982 L188.9424,199.9002 C190.7834,202.6482 189.7744,205.2052 189.2564,206.1772 C188.7374,207.1492 187.1744,209.4092 183.8664,209.4092 L14.1334,209.4092 C10.8264,209.4092 9.2624,207.1492 8.7434,206.1772 C8.2254,205.2052 7.2174,202.6482 9.0574,199.9002 L78.6464,95.9982 L80.0004,93.9782 L80.0004,91.5472 L80.0004,8.9092 L118.0004,8.9092 Z" id="Fill-20" fill="#21295C" mask="url(#mask-8)"></path>
            </g>
            <path d="M71.7513,72 C68.7633,72 66.3313,69.569 66.3313,66.58 L66.3313,65.42 C66.3313,62.431 68.7633,60 71.7513,60 L126.9113,60 C129.8993,60 132.3313,62.431 132.3313,65.42 L132.3313,66.58 C132.3313,69.569 129.8993,72 126.9113,72 L71.7513,72 Z" id="Fill-23" fill="#FFFFFF"></path>
            <path d="M126.9115,57 L71.7515,57 C67.1005,57 63.3315,60.77 63.3315,65.42 L63.3315,66.58 C63.3315,71.23 67.1005,75 71.7515,75 L126.9115,75 C131.5615,75 135.3315,71.23 135.3315,66.58 L135.3315,65.42 C135.3315,60.77 131.5615,57 126.9115,57 M126.9115,63 C128.2455,63 129.3315,64.085 129.3315,65.42 L129.3315,66.58 C129.3315,67.915 128.2455,69 126.9115,69 L71.7515,69 C70.4175,69 69.3315,67.915 69.3315,66.58 L69.3315,65.42 C69.3315,64.085 70.4175,63 71.7515,63 L126.9115,63" id="Fill-25" fill="#21295C"></path>
        </g>
    </g>
</svg>